<svg xmlns="http://www.w3.org/2000/svg" width="60" height="60" viewBox="0 0 60 60" fill="none"><path d="M30 0C13.4315 0 0 13.4315 0 30C0 46.5685 13.4315 60 30 60C46.5685 60 60 46.5685 60 30C60 13.4315 46.5685 0 30 0ZM30 3C44.9117 3 57 15.0883 57 30C57 44.9117 44.9117 57 30 57C15.0883 57 3 44.9117 3 30C3 15.0883 15.0883 3 30 3ZM30 10C29.1716 10 28.5 10.6716 28.5 11.5V28.5H11.5C10.6716 28.5 10 29.1716 10 30C10 30.8284 10.6716 31.5 11.5 31.5H28.5V48.5C28.5 49.3284 29.1716 50 30 50C30.8284 50 31.5 49.3284 31.5 48.5V31.5H48.5C49.3284 31.5 50 30.8284 50 30C50 29.1716 49.3284 28.5 48.5 28.5H31.5V11.5C31.5 10.6716 30.8284 10 30 10ZM20 15L15 20L25 30L15 40L20 45L30 35L40 45L45 40L35 30L45 20L40 15L30 25L20 15Z" fill="#ffffff"></path></svg>
